<svg id="Layer_1" data-name="Layer 1" xmlns="http://www.w3.org/2000/svg" viewBox="0 0 691.98 689.58"><title>doc</title><path d="M-.82,224.61V-1.09H233.52a.79.79,0,0,1,.19.64,1.32,1.32,0,0,1-.56.75c-10.78,6.12-20.64,13.6-30.68,20.79-11.84,8.47-23.6,17.06-35.16,25.92s-22.82,18.56-34.25,27.83c-6.66,5.39-12.8,11.35-19.12,17.11-9.81,8.93-19.87,17.62-29,27.23-8.55,9-17.27,17.8-25.77,26.82-5.25,5.57-9.73,11.86-14.59,17.8-5.42,6.62-10.94,13.16-16.14,19.94-6.09,7.94-11.55,16.33-16.94,24.75-3,4.64-5.8,9.39-8.83,14a5.27,5.27,0,0,1-2.08,2.26A1.67,1.67,0,0,1-.82,224.61Z" transform="translate(0.82 1.09)" style="fill:#fff"/><path d="M438.57-1.09H691.16V65.66a1.35,1.35,0,0,1-.85.23,25.23,25.23,0,0,0-5.48-.49q-97.71,0-195.41,0c-2.73,0-5.42.43-8.13.65a9.71,9.71,0,0,0-4.73,2.19c-10.19,7.35-20.65,14.3-30.92,21.52a11.16,11.16,0,0,1-1.65,1,2,2,0,0,1-3-1.48,14.07,14.07,0,0,1-.2-3.11c0-21.37-.1-42.73.07-64.1,0-4.94.49-9.9.38-14.85-.06-2.77-.41-5.44-2.67-7.43A.87.87,0,0,1,438.57-1.09Z" transform="translate(0.82 1.09)" style="fill:#fff"/><path d="M249.37,688.49H-.82V620.78a2.58,2.58,0,0,1,2.19.35c1.94,1,4,.86,6.11.86H242.86c6.7,0,6.54,0,6.77,6.61.49,14,.32,28,.52,42,.07,4.47.47,8.93.4,13.41a8.2,8.2,0,0,1-.59,3.76A5.18,5.18,0,0,1,249.37,688.49Z" transform="translate(0.82 1.09)" style="fill:#fff"/><path d="M690.73,65.62a2,2,0,0,0,.43,0V681.77a.81.81,0,0,1-.89-.14,3.7,3.7,0,0,1-.73-2.7c-.09-1.52,0-3,0-4.56V73.1c0-1.68,0-3.36.07-5C689.63,67.11,689.63,66.09,690.73,65.62Z" transform="translate(0.82 1.09)" style="fill:#818181"/><path d="M.08,621.77l-.9-1V224.61l1-.47c1.16.62,1.06,1.72.94,2.75a81,81,0,0,0-.24,9.35v377c0,2.08-.07,4.16.1,6.23C1,620.4,1,621.26.08,621.77Z" transform="translate(0.82 1.09)" style="fill:#ababab"/><path d="M679.64,688.49H320.92a.79.79,0,0,1,.13-.88,3.36,3.36,0,0,1,2.47-.73c1.27-.09,2.56-.06,3.84-.06q172.92,0,345.84,0c2.1,0,4.33-.55,6.3.75A.81.81,0,0,1,679.64,688.49Z" transform="translate(0.82 1.09)" style="fill:#bfbfbf"/><path d="M287.78-1.09h86a.77.77,0,0,1-.13.88c-.91.87-2.08.75-3.17.75q-39.68.09-79.35,0c-1.09,0-2.26.12-3.17-.75A.79.79,0,0,1,287.78-1.09Z" transform="translate(0.82 1.09)" style="fill:#565656"/><path d="M320.91,688.09c0,.13,0,.27,0,.4H249.37l0-.54c1.08-1.28,2.58-1.1,4-1.11,7.59-.05,15.17,0,22.75,0,13.56,0,27.13,0,40.69,0C318.25,686.87,320,686.37,320.91,688.09Z" transform="translate(0.82 1.09)" style="fill:#cfcfcf"/><path d="M373.72-.64c0-.15,0-.3,0-.45h64.83a1.91,1.91,0,0,1,.11.41C438.23.43,437.22.43,436.27.5c-1.44.12-2.88.08-4.31.08-18,0-35.92,0-53.88,0C376.58.54,374.81,1.06,373.72-.64Z" transform="translate(0.82 1.09)" style="fill:#2c2c2c"/><path d="M287.78-1.09c0,.15,0,.29,0,.44C287,.87,285.47.52,284.18.54c-6.87.09-13.73,0-20.6,0-8.78,0-17.56.05-26.34,0-1.35,0-3,.43-3.84-1.23a.93.93,0,0,1,.12-.4Z" transform="translate(0.82 1.09)" style="fill:#2d2d2d"/><path d="M690.68,681.77h.48v6.72h-2.4a1.1,1.1,0,0,1-.27-.69,11.29,11.29,0,0,0,1.09-4.12C689.59,682.9,689.71,682.06,690.68,681.77Z" transform="translate(0.82 1.09)" style="fill:#e1e1e1"/><path d="M688.79,688a.61.61,0,0,0,0,.46h-9.12c0-.14,0-.28-.08-.41a1.45,1.45,0,0,1,1.25-1C683.51,687.07,686.36,685.85,688.79,688Z" transform="translate(0.82 1.09)" style="fill:#454545"/><path d="M688.79,688l-9.23.05c-2.8,0-5.6-.07-8.4-.07H324.27c-1.12,0-2.24,0-3.36.08s-2.07-.1-3.11-.1h-65c-1.12,0-2.24,0-3.36,0q-.26-14.26-.5-28.55c-.18-11.28-.32-22.56-.49-33.84,0-2.1,0-2.1-2.11-2.14h-211q-15.36,0-30.72-.1c-1,0-2.08-.13-3.11-.18a1.32,1.32,0,0,1-1.37-1.36A76.44,76.44,0,0,1-.2,612.2q0-190.68,0-381.36a49.88,49.88,0,0,1,.36-6.7C2,221.25,4,218.41,5.71,215.45c6.08-10.27,12.88-20,19.73-29.8,3.36-4.76,7.26-9.14,10.93-13.69,2.91-3.61,6-7.12,8.75-10.82,10.07-13.31,22.08-24.85,33.43-37C91,110.84,104.72,99,118,86.55c11.69-11,24.45-20.63,36.7-30.91,15.16-12.71,31.49-23.86,47.29-35.7C209.11,14.56,216.59,9.63,224,4.62a14,14,0,0,0,2.65-2.05A10.27,10.27,0,0,1,233.4-.69a48,48,0,0,0,6.46.07q24,0,48,0c6.55,0,13.11,0,19.67,0q33.12,0,66.23,0H438c.24,0,.47,0,.71-.05s.64.06.95.13c2.13.51,2.09.52,2.32,2.61.58,5.1.27,10.22.3,15.34,0,6.64-.07,13.28-.08,19.92q0,25.08,0,50.16a5.64,5.64,0,0,0,.24,2.77c.63.11.95-.3,1.32-.57Q458.53,79.21,473.52,69a17,17,0,0,0,2.81-2.23c1.44-1.53,3.21-1.88,5.17-2.08,11.66-1.19,23.34-.46,35-.62,1,0,2.08,0,3.12,0H685.25c1.36,0,2.72.08,4.08,0,1.08,0,1.4.51,1.4,1.45,0,1.2-.05,2.4-.05,3.6V681.77c0,1.35,0,2.7,0,4.05C690.72,687.6,690.72,687.6,688.79,688Z" transform="translate(0.82 1.09)"/><path d="M660,379.28V652.52c0,.8,0,1.6,0,2.4,0,2-.51,2.57-2.39,2.89a12.81,12.81,0,0,1-2.15.09H388.21q-51.73,0-103.48-.1h-1.68c-2.38,0-2.38,0-2.35-2.38,0-1,0-2.08,0-3.12q0-26.29.09-52.58.1-43.82.21-87.63c0-15.45,0-30.89.2-46.34.26-23.45.28-46.89.4-70.34q.21-39.74.48-79.47c0-.56,0-1.12,0-1.67a1.5,1.5,0,0,1,1.56-1.5c.72,0,1.44,0,2.16,0q98.81,0,197.6,0c2.64,0,5.29,0,7.92.18s4.21-1.25,6.17-2.26c.55-.28.39-.81.46-1.27.8-5.39.61-10.81.61-16.23V104.9c0-4.7-.27-4.22,4.33-4.22q75.27,0,150.55,0a16.53,16.53,0,0,1,5.18.79,1.53,1.53,0,0,1,1.27,1.71c0,1.28,0,2.56,0,3.84Z" transform="translate(0.82 1.09)" style="fill:#d5d5d5"/><path d="M31.31,419.9q0-84.16,0-168.31a14.18,14.18,0,0,1,.72-4.71,1.47,1.47,0,0,1,1.57-1.16c1,0,2.08,0,3.12,0H235.49a18.26,18.26,0,0,0,3.83-.23A1.8,1.8,0,0,0,240.9,244a13.43,13.43,0,0,0,.25-3.57q0-101.44,0-202.88c0-.8,0-1.61,0-2.4a1.34,1.34,0,0,1,1.45-1.52c.88,0,1.76,0,2.64,0q78.63,0,157.26,0a10.27,10.27,0,0,0,4.25-.38c1-.41,1.64.25,2,1.23a8.89,8.89,0,0,1,.22,2.86q0,27.24,0,54.5c0,6.32.07,12.64.09,19,0,1-.21,2.09-.11,3.11.25,2.61-1,4.42-2.9,5.94L402.12,123c-22.07,17.91-43.5,36.53-64,56.22-9.48,9.1-18.2,18.91-27.41,28.25s-16.81,19.73-25.29,29.52c-9.42,10.87-17,23.06-25,34.88-3.2,4.69-6.52,9.31-9.31,14.27a6.29,6.29,0,0,1-1.27,1.74c-1.72,1.47-2,3.45-2.44,5.53a53.64,53.64,0,0,0-.84,10.73q0,100.37,0,200.72,0,42.62-.16,85.23c0,2.46.52,2.65-2.55,2.66-16,0-32,.12-48,.14q-51,.07-102,.09l-56.42,0c-1,0-2.08,0-3.12,0-2.31-.07-2.83-.56-2.9-2.81-.06-2-.08-4-.08-6V419.9Z" transform="translate(0.82 1.09)" style="fill:#fff"/><path d="M313.54,278.88A527.73,527.73,0,0,1,469,129.34c.84.43.56,1.06.61,1.58a12,12,0,0,1,0,1.2V274.7c0,4.63,0,4.62-4.67,4.62H315.9A3.31,3.31,0,0,1,313.54,278.88Z" transform="translate(0.82 1.09)" style="fill:#fff"/><path d="M209.91,64.17V208.88c0,.48,0,1,0,1.44a1.82,1.82,0,0,1-1.79,1.88q-.72.06-1.44.06l-149.34-.1a9,9,0,0,1-2.84-.15c1.27-4.24,29.1-39,44.81-56.12a534.59,534.59,0,0,1,51.93-49.47A516.18,516.18,0,0,1,209.91,64.17Z" transform="translate(0.82 1.09)" style="fill:#fff"/></svg>