<svg id="Layer_1" data-name="Layer 1" xmlns="http://www.w3.org/2000/svg" viewBox="0 0 29.19 28.89"><title>icon</title><path d="M11.88,13H3.4a1,1,0,0,1-1-1V3.56a1,1,0,0,1,1-1h8.48a1,1,0,0,1,1,1V12A1,1,0,0,1,11.88,13ZM29.6,12V3.56a1,1,0,0,0-1-1H20.12a1,1,0,0,0-1,1V12a1,1,0,0,0,1,1H28.6A1,1,0,0,0,29.6,12ZM12.88,28.44V20a1,1,0,0,0-1-1H3.4a1,1,0,0,0-1,1v8.47a1,1,0,0,0,1,1h8.48A1,1,0,0,0,12.88,28.44Zm16.72,0V20a1,1,0,0,0-1-1H20.12a1,1,0,0,0-1,1v8.47a1,1,0,0,0,1,1H28.6A1,1,0,0,0,29.6,28.44Z" transform="translate(-1.4 -1.56)"/></svg>
